<?xml version="1.0" encoding="UTF-8"?><svg id="Layer_1" xmlns="http://www.w3.org/2000/svg" viewBox="0 0 1125 1125"><defs><style>.cls-1{fill:#fff;stroke:#000;stroke-miterlimit:10;stroke-width:14px;}</style></defs><path class="cls-1" d="m146.81,504.38M886.06,21l-73.95,120.29-73.95-120.29-73.95,120.29-73.95-120.29-73.95,120.29-73.95-120.29-73.95,120.29-73.95-120.29-73.95,120.29L146.59,21l-74.14,120.61,74.14,120.61v.12l-74.14,120.61,74.14,120.61-.09.43-74.14,120.61,74.14,120.61v.12l-74.14,120.61,74.14,120.61.34.46,74.02,120.96,73.95-120.29,73.95,120.29,73.95-120.29,73.95,120.29,73.95-120.29,73.95,120.29,73.95-120.29,73.95,120.29,73.95-120.29,73.95,120.29,74.14-120.61-74.14-120.74,74.14-120.61-74.14-120.61,74.23-121.05-74.14-120.61v-.12l74.14-120.61L886.06,21Z"/></svg>