<?xml version="1.0" encoding="UTF-8"?><svg id="Layer_1" xmlns="http://www.w3.org/2000/svg" viewBox="0 0 1125 1125"><defs><style>.cls-1{fill:#01e200;}.cls-2{fill:#0551fa;}</style></defs><polygon class="cls-2" points="146.22 6.46 70.33 129.91 146.22 253.37 222.11 129.91 146.22 6.46"/><polygon class="cls-2" points="297.6 6.46 221.71 129.91 297.6 253.37 373.49 129.91 297.6 6.46"/><polygon class="cls-2" points="448.98 6.46 373.09 129.91 448.98 253.37 524.87 129.91 448.98 6.46"/><polygon class="cls-2" points="600.35 6.46 524.46 129.91 600.35 253.37 676.25 129.91 600.35 6.46"/><polygon class="cls-2" points="751.73 6.46 675.84 129.91 751.73 253.37 827.62 129.91 751.73 6.46"/><polygon class="cls-2" points="903.11 6.46 827.22 129.91 903.11 253.37 979 129.91 903.11 6.46"/><polygon class="cls-2" points="146.22 253.49 70.33 376.95 146.22 500.4 222.11 376.95 146.22 253.49"/><polygon class="cls-2" points="297.6 253.49 221.71 376.95 297.6 500.4 373.49 376.95 297.6 253.49"/><polygon class="cls-2" points="448.98 253.49 373.09 376.95 448.98 500.4 524.87 376.95 448.98 253.49"/><polygon class="cls-2" points="600.35 253.49 524.46 376.95 600.35 500.4 676.25 376.95 600.35 253.49"/><polygon class="cls-2" points="751.73 253.49 675.84 376.95 751.73 500.4 827.62 376.95 751.73 253.49"/><polygon class="cls-2" points="903.11 253.49 827.22 376.95 903.11 500.4 979 376.95 903.11 253.49"/><polygon class="cls-2" points="146.13 500.84 70.24 624.3 146.13 747.75 222.02 624.3 146.13 500.84"/><polygon class="cls-2" points="297.51 500.84 221.62 624.3 297.51 747.75 373.4 624.3 297.51 500.84"/><polygon class="cls-2" points="448.89 500.84 373 624.3 448.89 747.75 524.78 624.3 448.89 500.84"/><polygon class="cls-2" points="600.27 500.84 524.38 624.3 600.27 747.75 676.16 624.3 600.27 500.84"/><polygon class="cls-2" points="751.64 500.84 675.75 624.3 751.64 747.75 827.54 624.3 751.64 500.84"/><polygon class="cls-2" points="903.02 500.84 827.13 624.3 903.02 747.75 978.91 624.3 903.02 500.84"/><polygon class="cls-2" points="146.13 747.88 70.24 871.33 146.13 994.79 222.02 871.33 146.13 747.88"/><polygon class="cls-2" points="297.51 747.88 221.62 871.33 297.51 994.79 373.4 871.33 297.51 747.88"/><polygon class="cls-2" points="448.89 747.88 373 871.33 448.89 994.79 524.78 871.33 448.89 747.88"/><polygon class="cls-2" points="600.27 747.88 524.38 871.33 600.27 994.79 676.16 871.33 600.27 747.88"/><polygon class="cls-2" points="751.64 747.88 675.75 871.33 751.64 994.79 827.54 871.33 751.64 747.88"/><polygon class="cls-2" points="903.02 747.88 827.13 871.33 903.02 994.79 978.91 871.33 903.02 747.88"/><polygon class="cls-1" points="221.98 130.21 146.09 253.67 221.98 377.12 297.87 253.67 221.98 130.21"/><polygon class="cls-1" points="373.36 130.21 297.46 253.67 373.36 377.12 449.25 253.67 373.36 130.21"/><polygon class="cls-1" points="524.73 130.21 448.84 253.67 524.73 377.12 600.62 253.67 524.73 130.21"/><polygon class="cls-1" points="676.11 130.21 600.22 253.67 676.11 377.12 752 253.67 676.11 130.21"/><polygon class="cls-1" points="827.49 130.21 751.6 253.67 827.49 377.12 903.38 253.67 827.49 130.21"/><polygon class="cls-1" points="978.87 130.21 902.98 253.67 978.87 377.12 1054.76 253.67 978.87 130.21"/><polygon class="cls-1" points="221.98 377.25 146.09 500.7 221.98 624.16 297.87 500.7 221.98 377.25"/><polygon class="cls-1" points="373.36 377.25 297.46 500.7 373.36 624.16 449.25 500.7 373.36 377.25"/><polygon class="cls-1" points="524.73 377.25 448.84 500.7 524.73 624.16 600.62 500.7 524.73 377.25"/><polygon class="cls-1" points="676.11 377.25 600.22 500.7 676.11 624.16 752 500.7 676.11 377.25"/><polygon class="cls-1" points="827.49 377.25 751.6 500.7 827.49 624.16 903.38 500.7 827.49 377.25"/><polygon class="cls-1" points="978.87 377.25 902.98 500.7 978.87 624.16 1054.76 500.7 978.87 377.25"/><polygon class="cls-1" points="221.89 624.6 146 748.05 221.89 871.51 297.78 748.05 221.89 624.6"/><polygon class="cls-1" points="373.27 624.6 297.38 748.05 373.27 871.51 449.16 748.05 373.27 624.6"/><polygon class="cls-1" points="524.65 624.6 448.75 748.05 524.65 871.51 600.54 748.05 524.65 624.6"/><polygon class="cls-1" points="676.02 624.6 600.13 748.05 676.02 871.51 751.91 748.05 676.02 624.6"/><polygon class="cls-1" points="827.4 624.6 751.51 748.05 827.4 871.51 903.29 748.05 827.4 624.6"/><polygon class="cls-1" points="978.78 624.6 902.89 748.05 978.78 871.51 1054.67 748.05 978.78 624.6"/><polygon class="cls-1" points="221.89 871.63 146 995.09 221.89 1118.54 297.78 995.09 221.89 871.63"/><polygon class="cls-1" points="373.27 871.63 297.38 995.09 373.27 1118.54 449.16 995.09 373.27 871.63"/><polygon class="cls-1" points="524.65 871.63 448.75 995.09 524.65 1118.54 600.54 995.09 524.65 871.63"/><polygon class="cls-1" points="676.02 871.63 600.13 995.09 676.02 1118.54 751.91 995.09 676.02 871.63"/><polygon class="cls-1" points="827.4 871.63 751.51 995.09 827.4 1118.54 903.29 995.09 827.4 871.63"/><polygon class="cls-1" points="978.78 871.63 902.89 995.09 978.78 1118.54 1054.67 995.09 978.78 871.63"/></svg>