<?xml version="1.0" encoding="UTF-8"?><svg id="Layer_1" xmlns="http://www.w3.org/2000/svg" viewBox="0 0 1125 1125"><defs><style>.cls-1{fill:#e7e200;}.cls-2{fill:#ff8c07;}</style></defs><polygon class="cls-1" points="144.78 4.5 68.65 128.33 144.78 252.16 220.9 128.33 144.78 4.5"/><polygon class="cls-1" points="296.61 4.5 220.49 128.33 296.61 252.16 372.74 128.33 296.61 4.5"/><polygon class="cls-1" points="448.45 4.5 372.33 128.33 448.45 252.16 524.58 128.33 448.45 4.5"/><polygon class="cls-1" points="600.29 4.5 524.17 128.33 600.29 252.16 676.41 128.33 600.29 4.5"/><polygon class="cls-1" points="752.13 4.5 676.01 128.33 752.13 252.16 828.25 128.33 752.13 4.5"/><polygon class="cls-1" points="903.97 4.5 827.85 128.33 903.97 252.16 980.09 128.33 903.97 4.5"/><polygon class="cls-1" points="144.78 252.29 68.65 376.12 144.78 499.95 220.9 376.12 144.78 252.29"/><polygon class="cls-1" points="296.61 252.29 220.49 376.12 296.61 499.95 372.74 376.12 296.61 252.29"/><polygon class="cls-1" points="448.45 252.29 372.33 376.12 448.45 499.95 524.58 376.12 448.45 252.29"/><polygon class="cls-1" points="600.29 252.29 524.17 376.12 600.29 499.95 676.41 376.12 600.29 252.29"/><polygon class="cls-1" points="752.13 252.29 676.01 376.12 752.13 499.95 828.25 376.12 752.13 252.29"/><polygon class="cls-1" points="903.97 252.29 827.85 376.12 903.97 499.95 980.09 376.12 903.97 252.29"/><polygon class="cls-1" points="144.69 500.39 68.57 624.22 144.69 748.05 220.81 624.22 144.69 500.39"/><polygon class="cls-1" points="296.53 500.39 220.4 624.22 296.53 748.05 372.65 624.22 296.53 500.39"/><polygon class="cls-1" points="448.37 500.39 372.24 624.22 448.37 748.05 524.49 624.22 448.37 500.39"/><polygon class="cls-1" points="600.2 500.39 524.08 624.22 600.2 748.05 676.33 624.22 600.2 500.39"/><polygon class="cls-1" points="752.04 500.39 675.92 624.22 752.04 748.05 828.17 624.22 752.04 500.39"/><polygon class="cls-1" points="903.88 500.39 827.76 624.22 903.88 748.05 980 624.22 903.88 500.39"/><polygon class="cls-1" points="144.69 748.18 68.57 872.01 144.69 995.84 220.81 872.01 144.69 748.18"/><polygon class="cls-1" points="296.53 748.18 220.4 872.01 296.53 995.84 372.65 872.01 296.53 748.18"/><polygon class="cls-1" points="448.37 748.18 372.24 872.01 448.37 995.84 524.49 872.01 448.37 748.18"/><polygon class="cls-1" points="600.2 748.18 524.08 872.01 600.2 995.84 676.33 872.01 600.2 748.18"/><polygon class="cls-1" points="752.04 748.18 675.92 872.01 752.04 995.84 828.17 872.01 752.04 748.18"/><polygon class="cls-1" points="903.88 748.18 827.76 872.01 903.88 995.84 980 872.01 903.88 748.18"/><polygon class="cls-2" points="221.12 129.16 145 252.99 221.12 376.82 297.24 252.99 221.12 129.16"/><polygon class="cls-2" points="372.96 129.16 296.83 252.99 372.96 376.82 449.08 252.99 372.96 129.16"/><polygon class="cls-2" points="524.8 129.16 448.67 252.99 524.8 376.82 600.92 252.99 524.8 129.16"/><polygon class="cls-2" points="676.63 129.16 600.51 252.99 676.63 376.82 752.76 252.99 676.63 129.16"/><polygon class="cls-2" points="828.47 129.16 752.35 252.99 828.47 376.82 904.6 252.99 828.47 129.16"/><polygon class="cls-2" points="980.31 129.16 904.19 252.99 980.31 376.82 1056.43 252.99 980.31 129.16"/><polygon class="cls-2" points="221.12 376.95 145 500.78 221.12 624.61 297.24 500.78 221.12 376.95"/><polygon class="cls-2" points="372.96 376.95 296.83 500.78 372.96 624.61 449.08 500.78 372.96 376.95"/><polygon class="cls-2" points="524.8 376.95 448.67 500.78 524.8 624.61 600.92 500.78 524.8 376.95"/><polygon class="cls-2" points="676.63 376.95 600.51 500.78 676.63 624.61 752.76 500.78 676.63 376.95"/><polygon class="cls-2" points="828.47 376.95 752.35 500.78 828.47 624.61 904.6 500.78 828.47 376.95"/><polygon class="cls-2" points="980.31 376.95 904.19 500.78 980.31 624.61 1056.43 500.78 980.31 376.95"/><polygon class="cls-2" points="221.03 625.05 144.91 748.88 221.03 872.71 297.15 748.88 221.03 625.05"/><polygon class="cls-2" points="372.87 625.05 296.75 748.88 372.87 872.71 448.99 748.88 372.87 625.05"/><polygon class="cls-2" points="524.71 625.05 448.59 748.88 524.71 872.71 600.83 748.88 524.71 625.05"/><polygon class="cls-2" points="676.55 625.05 600.42 748.88 676.55 872.71 752.67 748.88 676.55 625.05"/><polygon class="cls-2" points="828.39 625.05 752.26 748.88 828.39 872.71 904.51 748.88 828.39 625.05"/><polygon class="cls-2" points="980.22 625.05 904.1 748.88 980.22 872.71 1056.35 748.88 980.22 625.05"/><polygon class="cls-2" points="221.03 872.84 144.91 996.67 221.03 1120.5 297.15 996.67 221.03 872.84"/><polygon class="cls-2" points="372.87 872.84 296.75 996.67 372.87 1120.5 448.99 996.67 372.87 872.84"/><polygon class="cls-2" points="524.71 872.84 448.59 996.67 524.71 1120.5 600.83 996.67 524.71 872.84"/><polygon class="cls-2" points="676.55 872.84 600.42 996.67 676.55 1120.5 752.67 996.67 676.55 872.84"/><polygon class="cls-2" points="828.39 872.84 752.26 996.67 828.39 1120.5 904.51 996.67 828.39 872.84"/><polygon class="cls-2" points="980.22 872.84 904.1 996.67 980.22 1120.5 1056.35 996.67 980.22 872.84"/></svg>