<?xml version="1.0" encoding="UTF-8"?><svg id="Layer_1" xmlns="http://www.w3.org/2000/svg" viewBox="0 0 1125 1125"><path d="m669.59,482.14h179.6l-41.9,160.71h-147.05c-14.75,0-26.79,12.03-26.79,26.79v401.79h-170.08v-401.79c0-14.75-12.03-26.79-26.79-26.79h-168.87v-158.57h187.5c14.75,0,26.79-12.03,26.79-26.79v-162.86c0-132.88,108.08-241.07,241.07-241.07h133.93v160.71h-80.36c-73.82,0-133.93,60.11-133.93,133.93v107.14c0,14.75,12.03,26.79,26.79,26.79h.09Zm107.14-214.29h107.14c14.75,0,26.79-12.03,26.79-26.79V26.79C910.66,12.03,898.62,0,883.87,0h-160.71C560.71,0,428.51,132.2,428.51,294.64v136.07h-187.5c-14.75,0-26.79,12.03-26.79,26.79v212.14c0,14.75,12.03,26.79,26.79,26.79h168.87v401.79c0,14.75,12.03,26.79,26.79,26.79h223.65c14.75,0,26.79-12.03,26.79-26.79v-401.79h140.89c12.19,0,22.91-8.16,26-20.09l55.87-214.29c2.15-8.06.42-16.58-4.71-23.18-5.07-6.54-12.87-10.46-21.14-10.46h-187.5v-80.36c0-44.31,36.05-80.36,80.36-80.36l-.16.16Z"/></svg>