<?xml version="1.0" encoding="UTF-8"?><svg id="Layer_1" xmlns="http://www.w3.org/2000/svg" viewBox="0 0 1125 1125"><defs><style>.cls-1{fill-rule:evenodd;}</style></defs><path class="cls-1" d="m841.34,216.19c35,0,63.44,28.38,63.44,63.44s-28.38,63.44-63.44,63.44-63.44-28.38-63.44-63.44,28.38-63.44,63.44-63.44Zm-526.39,346.34c0-136.55,111.09-247.58,247.58-247.58s247.58,111.09,247.58,247.58-111.09,247.58-247.58,247.58-247.58-111.09-247.58-247.58Zm98.51,0c0,82.16,66.85,149.07,149.07,149.07s149.07-66.85,149.07-149.07-66.85-149.07-149.07-149.07-149.07,66.85-149.07,149.07ZM127.17,367.58c0-132.54,107.87-240.41,240.41-240.41h389.9c132.54,0,240.41,107.87,240.41,240.41v389.9c0,132.54-107.81,240.41-240.41,240.41h-389.9c-132.54,0-240.41-107.81-240.41-240.41v-389.9Zm-108.17-14.89v419.63c0,184.01,149.68,333.69,333.69,333.69h419.63c184.01,0,333.69-149.68,333.69-333.69v-419.63c0-184.01-149.68-333.69-333.69-333.69h-419.63C168.68,19,19,168.68,19,352.69Z"/></svg>