<?xml version="1.0" encoding="UTF-8"?><svg id="Layer_1" xmlns="http://www.w3.org/2000/svg" viewBox="0 0 260 60"><defs><style>.cls-1{fill:#fff;}</style></defs><path class="cls-1" d="m-.06.93h11.22l11.97,19.95h.5V.93h9.72v34.91h-11.22L10.17,15.89h-.5v19.95H-.06V.93Z"/><path class="cls-1" d="m59.79.93h10.47l-12.72,22.44v12.47h-9.72v-12.47L34.6.93h11.22l6.93,12.72h.5L59.79.93Z"/><path class="cls-1" d="m90.21,21.38h9.97c0,10.27-6.73,15.21-16.21,15.21-8.73,0-17.21-4.99-17.21-16.96v-2.49C66.77,5.17,75.24.19,83.97.19c9.48,0,16.21,4.99,16.21,14.71h-9.97l-.05-.75c-.2-2.94-1.95-5.49-6.18-5.49-4.99,0-6.98,2.49-6.98,7.73v3.99c0,5.24,1.99,7.73,6.98,7.73,4.24,0,5.93-2.44,6.18-5.98l.05-.75Z"/><path class="cls-1" d="m101.92.93h27.18v8.48h-17.45v6.23h16.96v8.48h-16.96v11.72h-9.72V.93Z"/><path class="cls-1" d="m144.32,31.37c-3.24,0-4.74,1-4.94,3.74l-.05.75h-9.48c.25-8.73,5.39-12.72,14.86-12.72,8.58,0,13.56,3.74,13.56,9.97v.75c0,4.94-2.54,7.43-6.58,10.42l-7.43,5.54v.5h14.26v8.48h-28.92v-8.08l14.71-11.02c3.34-2.49,4.24-3.59,4.24-5.09v-.75c0-1.5-1.25-2.49-4.24-2.49Z"/><path class="cls-1" d="m175.48,23.14c7.48,0,15.46,3.99,15.46,15.96v4.49c0,11.97-7.98,15.96-15.46,15.96s-15.46-3.99-15.46-15.96v-4.49c0-11.97,7.98-15.96,15.46-15.96Zm0,27.93c3.49,0,5.24-1.5,5.24-7.23v-4.99c0-5.74-1.75-7.23-5.24-7.23s-5.24,1.5-5.24,7.23v4.99c0,5.74,1.75,7.23,5.24,7.23Z"/></svg>