<?xml version="1.0" encoding="UTF-8"?><svg id="Layer_1" xmlns="http://www.w3.org/2000/svg" viewBox="0 0 676.27 218.46"><path d="m12.84,10.68h38.22l40.77,67.95h1.7V10.68h33.12v118.91h-38.22L47.66,61.64h-1.7v67.95H12.84V10.68Z"/><path d="m216.67,10.68h35.67l-43.32,76.44v42.47h-33.12v-42.47L130.89,10.68h38.22l23.61,43.32h1.7l22.25-43.32Z"/><path d="m320.29,80.33h33.97c0,34.99-22.93,51.81-55.21,51.81-29.73,0-58.61-16.99-58.61-57.76v-8.49c0-40.77,28.88-57.76,58.61-57.76,32.28,0,55.21,16.99,55.21,50.11h-33.97l-.17-2.55c-.68-10.02-6.63-18.69-21.06-18.69-16.99,0-23.78,8.49-23.78,26.33v13.59c0,17.84,6.8,26.33,23.78,26.33,14.44,0,20.21-8.32,21.06-20.38l.17-2.55Z"/><path d="m360.2,10.68h92.58v28.88h-59.45v21.23h57.76v28.88h-57.76v39.92h-33.12V10.68Z"/><path d="m504.61,114.35c-11.04,0-16.14,3.4-16.82,12.74l-.17,2.55h-32.28c.85-29.73,18.35-43.32,50.62-43.32,29.22,0,46.21,12.74,46.21,33.97v2.55c0,16.82-8.66,25.31-22.42,35.5l-25.31,18.86v1.7h48.58v28.88h-98.53v-27.52l50.11-37.54c11.38-8.49,14.44-12.23,14.44-17.33v-2.55c0-5.1-4.25-8.49-14.44-8.49Z"/><path d="m610.77,86.32c25.48,0,52.66,13.59,52.66,54.36v15.29c0,40.77-27.18,54.36-52.66,54.36s-52.66-13.59-52.66-54.36v-15.29c0-40.77,27.18-54.36,52.66-54.36Zm0,95.13c11.89,0,17.84-5.1,17.84-24.63v-16.99c0-19.54-5.95-24.63-17.84-24.63s-17.84,5.1-17.84,24.63v16.99c0,19.54,5.95,24.63,17.84,24.63Z"/></svg>